<svg width="82" height="46" viewBox="0 0 82 46" fill="none" xmlns="http://www.w3.org/2000/svg">
<path d="M8.352 4.444V19H5.976V4.444H0.888V2.464H13.524L13.272 4.444H8.352ZM22.3466 6.352V17.248H25.8626V19H16.1906V17.248H20.0426V8.104H16.3106V6.352H22.3466ZM20.6306 0.303999C21.1106 0.303999 21.4946 0.451999 21.7826 0.748C22.0786 1.044 22.2266 1.404 22.2266 1.828C22.2266 2.268 22.0786 2.64 21.7826 2.944C21.4946 3.24 21.1106 3.388 20.6306 3.388C20.1586 3.388 19.7746 3.24 19.4786 2.944C19.1906 2.64 19.0466 2.268 19.0466 1.828C19.0466 1.404 19.1906 1.044 19.4786 0.748C19.7746 0.451999 20.1586 0.303999 20.6306 0.303999ZM37.6613 6.052C38.1013 6.052 38.5093 6.148 38.8853 6.34C39.2613 6.532 39.5653 6.884 39.7973 7.396C40.0293 7.9 40.1452 8.632 40.1452 9.592V19H38.0453V9.928C38.0453 9.192 37.9973 8.664 37.9013 8.344C37.8133 8.016 37.5573 7.852 37.1333 7.852C36.7813 7.852 36.4333 7.96 36.0893 8.176C35.7453 8.392 35.4053 8.752 35.0693 9.256V19H33.0533V9.928C33.0533 9.192 33.0053 8.664 32.9093 8.344C32.8213 8.016 32.5653 7.852 32.1413 7.852C31.7813 7.852 31.4293 7.96 31.0853 8.176C30.7493 8.392 30.4132 8.752 30.0773 9.256V19H27.9772V6.352H29.7533L29.8973 7.768C30.2493 7.272 30.6373 6.864 31.0613 6.544C31.4933 6.216 32.0173 6.052 32.6333 6.052C33.1133 6.052 33.5573 6.168 33.9653 6.4C34.3813 6.632 34.6853 7.064 34.8773 7.696C35.2213 7.208 35.6133 6.812 36.0533 6.508C36.4933 6.204 37.0293 6.052 37.6613 6.052ZM44.4439 13.456C44.4919 14.384 44.6799 15.144 45.0079 15.736C45.3359 16.32 45.7639 16.752 46.2919 17.032C46.8199 17.304 47.4039 17.44 48.0439 17.44C48.6759 17.44 49.2559 17.344 49.7839 17.152C50.3119 16.96 50.8479 16.68 51.3919 16.312L52.4359 17.764C51.8439 18.236 51.1599 18.612 50.3839 18.892C49.6079 19.164 48.8039 19.3 47.9719 19.3C46.7079 19.3 45.6319 19.024 44.7439 18.472C43.8639 17.912 43.1919 17.136 42.7279 16.144C42.2719 15.152 42.0439 14 42.0439 12.688C42.0439 11.416 42.2719 10.28 42.7279 9.28C43.1919 8.28 43.8439 7.492 44.6839 6.916C45.5239 6.34 46.5239 6.052 47.6839 6.052C48.7719 6.052 49.7079 6.304 50.4919 6.808C51.2839 7.312 51.8919 8.032 52.3159 8.968C52.7399 9.896 52.9519 11.008 52.9519 12.304C52.9519 12.52 52.9479 12.728 52.9399 12.928C52.9319 13.128 52.9199 13.304 52.9039 13.456H44.4439ZM47.7079 7.852C46.8119 7.852 46.0639 8.172 45.4639 8.812C44.8719 9.452 44.5319 10.44 44.4439 11.776H50.7319C50.7079 10.496 50.4279 9.524 49.8919 8.86C49.3639 8.188 48.6359 7.852 47.7079 7.852ZM10.572 35.296C10.572 34.504 10.416 33.892 10.104 33.46C9.8 33.02 9.388 32.716 8.868 32.548C8.356 32.38 7.788 32.296 7.164 32.296H4.536V38.092H7.056C7.456 38.092 7.86 38.056 8.268 37.984C8.684 37.912 9.064 37.776 9.408 37.576C9.76 37.376 10.04 37.092 10.248 36.724C10.464 36.356 10.572 35.88 10.572 35.296ZM9.924 27.796C9.924 26.9 9.644 26.264 9.084 25.888C8.532 25.504 7.768 25.312 6.792 25.312H4.536V30.424H6.984C7.944 30.424 8.672 30.216 9.168 29.8C9.672 29.384 9.924 28.716 9.924 27.796ZM13.068 35.26C13.068 36.172 12.888 36.932 12.528 37.54C12.176 38.148 11.696 38.632 11.088 38.992C10.488 39.352 9.812 39.612 9.06 39.772C8.316 39.924 7.552 40 6.768 40H2.16V23.464H6.42C7.164 23.464 7.888 23.532 8.592 23.668C9.296 23.796 9.928 24.02 10.488 24.34C11.056 24.652 11.508 25.08 11.844 25.624C12.18 26.16 12.348 26.832 12.348 27.64C12.348 28.336 12.2 28.932 11.904 29.428C11.616 29.916 11.24 30.312 10.776 30.616C10.312 30.912 9.816 31.12 9.288 31.24C9.896 31.344 10.488 31.536 11.064 31.816C11.648 32.088 12.128 32.5 12.504 33.052C12.88 33.596 13.068 34.332 13.068 35.26ZM20.6546 27.052C21.8626 27.052 22.8746 27.324 23.6906 27.868C24.5146 28.412 25.1346 29.18 25.5506 30.172C25.9746 31.156 26.1866 32.32 26.1866 33.664C26.1866 34.968 25.9706 36.12 25.5386 37.12C25.1146 38.112 24.4906 38.892 23.6666 39.46C22.8426 40.02 21.8306 40.3 20.6306 40.3C19.4306 40.3 18.4146 40.028 17.5826 39.484C16.7586 38.94 16.1346 38.172 15.7106 37.18C15.2866 36.188 15.0746 35.024 15.0746 33.688C15.0746 32.376 15.2866 31.224 15.7106 30.232C16.1426 29.232 16.7746 28.452 17.6066 27.892C18.4386 27.332 19.4546 27.052 20.6546 27.052ZM20.6546 28.888C19.6146 28.888 18.8306 29.28 18.3026 30.064C17.7746 30.84 17.5106 32.048 17.5106 33.688C17.5106 35.312 17.7706 36.516 18.2906 37.3C18.8106 38.076 19.5906 38.464 20.6306 38.464C21.6706 38.464 22.4506 38.076 22.9706 37.3C23.4906 36.516 23.7506 35.304 23.7506 33.664C23.7506 32.032 23.4906 30.828 22.9706 30.052C22.4586 29.276 21.6866 28.888 20.6546 28.888ZM30.6533 40H28.0612L32.6813 33.328L28.6133 27.352H31.3012L34.0853 31.948L36.8933 27.352H39.4732L35.4413 33.232L40.0613 40H37.2893L33.9893 34.684L30.6533 40ZM49.2079 27.352V38.248H52.7239V40H43.0519V38.248H46.9039V29.104H43.1719V27.352H49.2079ZM47.4919 21.304C47.9719 21.304 48.3559 21.452 48.6439 21.748C48.9399 22.044 49.0879 22.404 49.0879 22.828C49.0879 23.268 48.9399 23.64 48.6439 23.944C48.3559 24.24 47.9719 24.388 47.4919 24.388C47.0199 24.388 46.6359 24.24 46.3399 23.944C46.0519 23.64 45.9079 23.268 45.9079 22.828C45.9079 22.404 46.0519 22.044 46.3399 21.748C46.6359 21.452 47.0199 21.304 47.4919 21.304ZM56.0145 40V27.352H57.9945L58.1625 29.056C58.6825 28.408 59.3145 27.912 60.0585 27.568C60.8105 27.224 61.5585 27.052 62.3025 27.052C63.5185 27.052 64.4145 27.384 64.9905 28.048C65.5665 28.704 65.8545 29.62 65.8545 30.796V40H63.5505V32.212C63.5505 31.412 63.5025 30.764 63.4065 30.268C63.3185 29.764 63.1305 29.4 62.8425 29.176C62.5545 28.952 62.1185 28.84 61.5345 28.84C61.0785 28.84 60.6465 28.94 60.2385 29.14C59.8305 29.34 59.4625 29.592 59.1345 29.896C58.8145 30.2 58.5425 30.516 58.3185 30.844V40H56.0145ZM79.8851 25.888L80.5571 27.928C80.0291 28.096 79.4611 28.204 78.8531 28.252C78.2531 28.3 77.5891 28.324 76.8611 28.324C77.6051 28.66 78.1651 29.092 78.5411 29.62C78.9171 30.148 79.1051 30.78 79.1051 31.516C79.1051 32.348 78.9091 33.088 78.5171 33.736C78.1331 34.384 77.5771 34.892 76.8491 35.26C76.1291 35.628 75.2611 35.812 74.2451 35.812C73.8451 35.812 73.5051 35.796 73.2251 35.764C72.9531 35.724 72.6851 35.664 72.4211 35.584C72.2451 35.704 72.0971 35.868 71.9771 36.076C71.8651 36.284 71.8091 36.504 71.8091 36.736C71.8091 37.016 71.9211 37.256 72.1451 37.456C72.3691 37.648 72.8051 37.744 73.4531 37.744H75.6971C76.5691 37.744 77.3451 37.896 78.0251 38.2C78.7131 38.504 79.2531 38.916 79.6451 39.436C80.0371 39.956 80.2331 40.548 80.2331 41.212C80.2331 42.468 79.6971 43.432 78.6251 44.104C77.5531 44.784 76.0331 45.124 74.0651 45.124C72.6731 45.124 71.5771 44.98 70.7771 44.692C69.9851 44.404 69.4211 43.976 69.0851 43.408C68.7571 42.84 68.5931 42.128 68.5931 41.272H70.6691C70.6691 41.744 70.7611 42.132 70.9451 42.436C71.1291 42.74 71.4651 42.968 71.9531 43.12C72.4411 43.272 73.1451 43.348 74.0651 43.348C74.9771 43.348 75.7131 43.272 76.2731 43.12C76.8331 42.968 77.2451 42.744 77.5091 42.448C77.7731 42.152 77.9051 41.792 77.9051 41.368C77.9051 40.808 77.6531 40.38 77.1491 40.084C76.6451 39.788 76.0011 39.64 75.2171 39.64H72.9971C71.8611 39.64 71.0251 39.4 70.4891 38.92C69.9611 38.432 69.6971 37.872 69.6971 37.24C69.6971 36.824 69.8131 36.42 70.0451 36.028C70.2851 35.636 70.6331 35.292 71.0891 34.996C70.3531 34.604 69.8091 34.124 69.4571 33.556C69.1131 32.988 68.9411 32.296 68.9411 31.48C68.9411 30.608 69.1571 29.84 69.5891 29.176C70.0291 28.512 70.6371 27.992 71.4131 27.616C72.1891 27.24 73.0811 27.052 74.0891 27.052C75.1371 27.052 75.9931 27.004 76.6571 26.908C77.3291 26.804 77.9091 26.668 78.3971 26.5C78.8931 26.324 79.3891 26.12 79.8851 25.888ZM74.1011 28.684C73.1571 28.684 72.4531 28.948 71.9891 29.476C71.5251 29.996 71.2931 30.664 71.2931 31.48C71.2931 32.304 71.5291 32.98 72.0011 33.508C72.4731 34.028 73.1891 34.288 74.1491 34.288C74.9971 34.288 75.6451 34.044 76.0931 33.556C76.5411 33.06 76.7651 32.36 76.7651 31.456C76.7651 30.544 76.5411 29.856 76.0931 29.392C75.6451 28.92 74.9811 28.684 74.1011 28.684Z" fill="#FBFBFB"/>
<path d="M79 16V7.99999C78.9996 7.64927 78.9071 7.3048 78.7315 7.00116C78.556 6.69751 78.3037 6.44536 78 6.26999L71 2.26999C70.696 2.09446 70.3511 2.00204 70 2.00204C69.6489 2.00204 69.304 2.09446 69 2.26999L62 6.26999C61.6963 6.44536 61.444 6.69751 61.2685 7.00116C61.0929 7.3048 61.0004 7.64927 61 7.99999V16C61.0004 16.3507 61.0929 16.6952 61.2685 16.9988C61.444 17.3025 61.6963 17.5546 62 17.73L69 21.73C69.304 21.9055 69.6489 21.9979 70 21.9979C70.3511 21.9979 70.696 21.9055 71 21.73L78 17.73C78.3037 17.5546 78.556 17.3025 78.7315 16.9988C78.9071 16.6952 78.9996 16.3507 79 16Z" stroke="#FBFBFB" stroke-width="2" stroke-linecap="round" stroke-linejoin="round"/>
<path d="M61.27 6.96001L70 12.01L78.73 6.96001" stroke="#FBFBFB" stroke-width="2" stroke-linecap="round" stroke-linejoin="round"/>
<path d="M70 22.08V12" stroke="#FBFBFB" stroke-width="2" stroke-linecap="round" stroke-linejoin="round"/>
</svg>
